<svg width="296" height="166" viewBox="0 0 296 166" fill="none" xmlns="http://www.w3.org/2000/svg">
<g clip-path="url(#clip0_17_572)">
<path d="M25.1361 136.187C27.6508 140.172 30.7143 143.783 34.2364 146.913C34.3169 146.987 34.3995 147.057 34.4822 147.129L42.002 142.661C41.9464 142.585 41.885 142.5 41.8191 142.408C37.8928 136.941 20.1604 100.575 20.0521 92.5223C20.0384 93.1889 13.6705 118.218 25.1361 136.187Z" fill="#E6E6E6"/>
<path d="M32.7855 147.775C32.9016 147.828 33.0202 147.878 33.1396 147.927L38.7812 144.575C38.6932 144.524 38.5904 144.464 38.4725 144.396C36.5413 143.268 30.7948 139.878 25.1367 136.186C19.0574 132.218 13.0767 127.904 12.0389 125.673C12.2549 126.187 18.9486 141.788 32.7855 147.775Z" fill="#E6E6E6"/>
<path d="M271.11 150.847C270.984 155.557 270.194 160.227 268.766 164.717C268.734 164.821 268.699 164.924 268.665 165.028H259.917C259.927 164.935 259.936 164.83 259.945 164.717C260.529 158.012 257.197 117.691 253.176 110.712C253.528 111.278 271.788 129.543 271.11 150.847Z" fill="#E6E6E6"/>
<path d="M270.453 164.717C270.38 164.821 270.304 164.926 270.226 165.028H263.664C263.714 164.939 263.771 164.835 263.838 164.717C264.922 162.761 268.131 156.911 271.109 150.847C274.309 144.33 277.246 137.566 276.999 135.118C277.076 135.67 279.291 152.502 270.453 164.717Z" fill="#E6E6E6"/>
<path d="M142.14 164.785H40.9843C38.5867 164.782 36.2881 163.829 34.5927 162.133C32.8974 160.438 31.9437 158.139 31.941 155.742V9.04324C31.9437 6.64565 32.8974 4.34704 34.5927 2.65169C36.2881 0.956342 38.5867 0.00270646 40.9843 0H142.14C144.537 0.00270646 146.836 0.95634 148.531 2.65169C150.227 4.34704 151.18 6.64565 151.183 9.04323V155.742C151.18 158.139 150.227 160.438 148.531 162.133C146.836 163.829 144.537 164.782 142.14 164.785V164.785Z" fill="#CACACA"/>
<path d="M142.318 159.015H40.8061C40.067 159.014 39.3585 158.72 38.8359 158.198C38.3132 157.675 38.0193 156.967 38.0184 156.227V8.55744C38.0193 7.81836 38.3132 7.1098 38.8359 6.58719C39.3585 6.06458 40.067 5.77061 40.8061 5.76977H142.318C143.057 5.77061 143.766 6.06458 144.288 6.58719C144.811 7.1098 145.105 7.81836 145.106 8.55744V156.227C145.105 156.967 144.811 157.675 144.288 158.198C143.766 158.72 143.057 159.014 142.318 159.015V159.015Z" fill="white"/>
<path d="M91.1774 3.53879C91.6023 3.53879 91.9467 3.19436 91.9467 2.76949C91.9467 2.34461 91.6023 2.00018 91.1774 2.00018C90.7525 2.00018 90.4081 2.34461 90.4081 2.76949C90.4081 3.19436 90.7525 3.53879 91.1774 3.53879Z" fill="white"/>
<path d="M294.641 165.318H0.579692C0.479658 165.318 0.383722 165.278 0.312987 165.208C0.242252 165.137 0.202515 165.041 0.202515 164.941C0.202515 164.841 0.242252 164.745 0.312987 164.674C0.383722 164.603 0.479658 164.564 0.579692 164.564H294.641C294.741 164.564 294.837 164.603 294.908 164.674C294.979 164.745 295.019 164.841 295.019 164.941C295.019 165.041 294.979 165.137 294.908 165.208C294.837 165.278 294.741 165.318 294.641 165.318Z" fill="#CACACA"/>
<path d="M91.5612 122.385C96.9846 122.385 101.381 117.989 101.381 112.565C101.381 107.142 96.9846 102.745 91.5612 102.745C86.1377 102.745 81.7411 107.142 81.7411 112.565C81.7411 117.989 86.1377 122.385 91.5612 122.385Z" fill="#E4E4E4"/>
<path d="M97.7092 93.7172H85.4132L77.9899 57.405C77.7991 55.5089 78.0079 53.5938 78.6026 51.7833C79.1973 49.9727 80.1648 48.3069 81.4427 46.8931C82.7206 45.4794 84.2805 44.3491 86.022 43.5752C87.7635 42.8012 89.6478 42.4008 91.5535 42.3997C93.4592 42.3985 95.344 42.7967 97.0864 43.5686C98.8288 44.3405 100.39 45.4689 101.67 46.8812C102.949 48.2934 103.919 49.9581 104.516 51.7679C105.112 53.5777 105.323 55.4926 105.135 57.3889L97.7092 93.7172Z" fill="#E4E4E4"/>
<path d="M139.875 44.9082H184.817C186.986 44.9082 189.09 45.6461 190.784 47.0005C192.478 48.3549 193.66 50.2453 194.137 52.3609L216.846 153.086C217.093 154.184 217.098 155.324 216.858 156.424C216.619 157.525 216.142 158.56 215.461 159.456C214.779 160.353 213.91 161.09 212.913 161.615C211.917 162.14 210.818 162.441 209.693 162.496L163.492 164.772C161.018 164.894 158.584 164.112 156.645 162.571C154.706 161.031 153.393 158.837 152.952 156.399L140.07 85.186L137.634 71.7155L134.038 51.8373C133.884 50.9859 133.92 50.111 134.143 49.2749C134.366 48.4389 134.77 47.6623 135.328 47.0006C135.885 46.3388 136.582 45.8082 137.368 45.4466C138.154 45.0849 139.01 44.9011 139.875 44.9082V44.9082Z" fill="#3F3D56"/>
<path d="M178.901 47.0796H184.147C185.653 47.0796 187.115 47.5949 188.288 48.5398C189.461 49.4848 190.276 50.8027 190.597 52.2746L212.394 152.178C212.52 152.753 212.52 153.348 212.394 153.923C212.268 154.498 212.02 155.04 211.666 155.51C211.312 155.98 210.86 156.369 210.343 156.649C209.825 156.929 209.252 157.093 208.665 157.132L162.613 160.15C161.314 160.235 160.029 159.839 159.003 159.037C157.978 158.235 157.283 157.084 157.052 155.802L138.453 52.543C138.333 51.8746 138.36 51.188 138.534 50.5316C138.708 49.8751 139.024 49.2649 139.46 48.7438C139.895 48.2228 140.44 47.8038 141.055 47.5162C141.67 47.2286 142.341 47.0796 143.02 47.0796H147.997C148.479 47.0796 148.947 47.2384 149.329 47.5314C149.711 47.8244 149.987 48.2352 150.112 48.7004V48.7004C150.222 49.111 150.465 49.4737 150.803 49.7324C151.14 49.991 151.554 50.1312 151.979 50.1312H175.605C176.438 50.1312 177.24 49.8169 177.851 49.2511C178.462 48.6854 178.837 47.9098 178.901 47.0796V47.0796Z" fill="white"/>
<path d="M202.143 79.1034C202.29 79.1986 202.43 79.3053 202.56 79.4224L217.783 75.5417L218.822 71.8692L224.569 72.7121L223.363 79.3923C223.265 79.9319 222.995 80.4254 222.593 80.7986C222.192 81.1718 221.68 81.4046 221.134 81.4621L203.359 83.3339C203.07 83.9439 202.601 84.4512 202.016 84.7883C201.431 85.1255 200.757 85.2766 200.084 85.2214C199.411 85.1663 198.771 84.9076 198.249 84.4797C197.726 84.0518 197.347 83.475 197.16 82.826C196.973 82.177 196.989 81.4866 197.204 80.8467C197.42 80.2067 197.825 79.6474 198.366 79.2433C198.907 78.8392 199.558 78.6094 200.233 78.5844C200.907 78.5594 201.574 78.7404 202.143 79.1034H202.143Z" fill="#FFB6B6"/>
<path d="M191.28 92.8772C196.703 92.8772 201.1 88.4806 201.1 83.0571C201.1 77.6337 196.703 73.2371 191.28 73.2371C185.856 73.2371 181.459 77.6337 181.459 83.0571C181.459 88.4806 185.856 92.8772 191.28 92.8772Z" fill="#00A651"/>
<path d="M197.428 64.2089H185.131L177.708 27.8967C177.517 26.0006 177.726 24.0855 178.321 22.275C178.916 20.4645 179.883 18.7986 181.161 17.3849C182.439 15.9711 183.999 14.8409 185.74 14.0669C187.482 13.293 189.366 12.8925 191.272 12.8914C193.177 12.8903 195.062 13.2885 196.805 14.0604C198.547 14.8322 200.108 15.9607 201.388 17.3729C202.668 18.7851 203.637 20.4498 204.234 22.2596C204.831 24.0695 205.042 25.9843 204.853 27.8807L197.428 64.2089Z" fill="#00A651"/>
<path d="M225.597 76.0457L221.675 79.4288L216.188 84.1583L213.765 71.7597L213.512 70.4704L213.312 69.4472L218.871 59.7634L223.506 60.0295L223.823 60.0485L223.829 60.1182L223.902 60.7675L224.852 69.3142L224.874 69.5201L225.597 76.0457Z" fill="#3F3D56"/>
<path d="M199.964 160.839L196.08 160.838L194.232 145.859L199.964 145.859L199.964 160.839Z" fill="#FFB6B6"/>
<path d="M200.954 164.603L188.432 164.603V164.444C188.432 163.152 188.945 161.912 189.859 160.998C190.773 160.084 192.013 159.57 193.306 159.57H193.306L200.954 159.571L200.954 164.603Z" fill="#2F2E41"/>
<path d="M240.511 161.156L236.627 161.155L234.78 146.176L240.512 146.176L240.511 161.156Z" fill="#FFB6B6"/>
<path d="M241.501 164.92L228.979 164.92V164.761C228.979 163.469 229.493 162.229 230.407 161.315C231.321 160.401 232.56 159.887 233.853 159.887H233.853L241.502 159.888L241.501 164.92Z" fill="#2F2E41"/>
<path d="M243.615 154.559L233.161 156.143L217.953 104.673L201.8 156.459L190.08 154.876L205.285 94.6881V89.9364L207.344 82.809L207.129 80.8798L205.63 67.3883L204.981 61.5374L204.939 61.1595C204.903 60.8423 204.987 60.5233 205.174 60.2647C205.361 60.006 205.638 59.8262 205.95 59.7603V59.7603L210.829 58.734H218.802L223.506 60.0296L223.829 60.1183L223.975 60.1595L223.902 60.7677L222.8 70.0112L222.739 70.518L221.675 79.429L221.441 81.3835C230.627 88.0358 230.944 94.6881 230.944 94.6881L243.615 154.559Z" fill="#2F2E41"/>
<path d="M213.852 54.7262C218.149 54.7262 221.632 51.2429 221.632 46.9459C221.632 42.6489 218.149 39.1655 213.852 39.1655C209.555 39.1655 206.071 42.6489 206.071 46.9459C206.071 51.2429 209.555 54.7262 213.852 54.7262Z" fill="#FFB6B6"/>
<path d="M222.024 79.5956L206.633 81.6084L206.92 83.8071L222.311 81.7943L222.024 79.5956Z" fill="#3F3D56"/>
<path d="M185.988 82.2712C186.135 82.3664 186.274 82.4731 186.405 82.5902L201.628 78.7095L202.666 75.037L208.414 75.8799L207.207 82.56C207.109 83.0997 206.84 83.5932 206.438 83.9664C206.036 84.3396 205.524 84.5724 204.978 84.6298L187.204 86.5017C186.914 87.1116 186.446 87.6189 185.86 87.9561C185.275 88.2933 184.602 88.4444 183.929 88.3892C183.256 88.3341 182.615 88.0754 182.093 87.6475C181.571 87.2196 181.191 86.6428 181.004 85.9938C180.818 85.3448 180.833 84.6544 181.049 84.0144C181.264 83.3744 181.669 82.8152 182.21 82.4111C182.751 82.007 183.402 81.7771 184.077 81.7521C184.752 81.7271 185.418 81.9082 185.988 82.2712H185.988Z" fill="#FFB6B6"/>
<path d="M209.403 61.7433L206.71 59.6843C205.982 59.4081 204.985 60.1927 204.81 60.9514L201.008 76.4734L208.928 82.1754L210.037 80.4331L209.403 61.7433Z" fill="#3F3D56"/>
<g opacity="0.2">
<path opacity="0.2" d="M224.852 69.3143C224.18 69.581 223.495 69.8136 222.8 70.0112C222.578 70.0777 222.35 70.1411 222.125 70.2013C220.642 70.6126 219.119 70.859 217.582 70.9362C216.921 70.9641 216.258 70.9462 215.599 70.8823C214.892 70.8118 214.193 70.6739 213.512 70.4705C213.489 70.4642 213.464 70.4578 213.442 70.4515C212.025 70.0493 210.727 69.3115 209.656 68.3006C209.417 68.0677 209.194 67.819 208.988 67.5562C208.397 66.8317 207.963 65.9919 207.714 65.0903C207.465 64.1887 207.407 63.2451 207.543 62.3199C207.57 62.1522 207.606 61.9861 207.651 61.8225C207.771 61.3767 207.929 60.9421 208.123 60.5237C208.209 60.3273 208.304 60.1341 208.405 59.944L211.985 58.734H218.802L223.506 60.0296L223.823 60.0486L223.829 60.1183L223.975 60.1595L223.902 60.7677L224.852 69.3143Z" fill="black"/>
</g>
<path d="M207.89 40.5046C206.435 40.3262 204.838 40.4523 203.704 41.3812C202.57 42.3101 202.204 44.241 203.277 45.239C204.228 46.1225 205.714 45.9148 206.988 46.166C208.085 46.4118 209.067 47.0185 209.778 47.889C210.49 48.7595 210.888 49.8434 210.911 50.9672C210.892 54.1902 207.799 56.6309 207.243 59.8056C206.864 61.9723 207.778 64.2526 209.357 65.7831C210.937 67.3135 213.109 68.1407 215.297 68.3647C217.485 68.5888 219.698 68.2466 221.825 67.6844C223.96 67.1198 226.062 66.3189 227.854 65.0273C229.646 63.7356 231.115 61.9147 231.69 59.7822C232.266 57.6496 231.852 55.2045 230.37 53.567C228.672 51.692 225.848 51.0473 224.38 48.9878C222.734 46.6792 223.343 43.3916 222.011 40.8887C221.121 39.2177 219.437 38.0779 217.642 37.4775C215.846 36.8771 213.929 36.7586 212.037 36.7004C211.043 36.6698 210.018 36.6597 209.091 37.0222C208.164 37.3848 207.35 38.2112 207.302 39.205C207.254 40.1989 207.89 40.5046 207.89 40.5046Z" fill="#2F2E41"/>
</g>
<defs>
<clipPath id="clip0_17_572">
<rect width="294.816" height="165.318" fill="white" transform="translate(0.202515)"/>
</clipPath>
</defs>
</svg>
